HIERARCHY
ROOT joint_Root
{
	OFFSET 0.0 0.0 0.0
	CHANNELS 6 Xposition Yposition Zposition Zrotation Xrotation Yrotation 
	JOINT Hips
	{
		OFFSET 4.5925 91.4895 -427.239
		CHANNELS 6 Xposition Yposition Zposition Zrotation Xrotation Yrotation 
		JOINT Spine
		{
			OFFSET 15.7357 0.0 0.0
			CHANNELS 6 Xposition Yposition Zposition Zrotation Xrotation Yrotation 
			JOINT Chest
			{
				OFFSET 8.98455 -0.406207 0.0
				CHANNELS 6 Xposition Yposition Zposition Zrotation Xrotation Yrotation 
				JOINT Neck
				{
					OFFSET 16.3773 0.0 0.0
					CHANNELS 6 Xposition Yposition Zposition Zrotation Xrotation Yrotation 
					JOINT Head
					{
						OFFSET 6.45672 0.0 0.0
						CHANNELS 6 Xposition Yposition Zposition Zrotation Xrotation Yrotation 
						End Site
						{
							OFFSET 0.0 0.0 0.0
						}
					}
				}
				JOINT Shoulder_L
				{
					OFFSET 12.9942 -0.242716 4.98039
					CHANNELS 6 Xposition Yposition Zposition Zrotation Xrotation Yrotation 
					JOINT UpperArm_L
					{
						OFFSET 5.34809 0.0 0.0
						CHANNELS 6 Xposition Yposition Zposition Zrotation Xrotation Yrotation 
						JOINT LowerArm_L
						{
							OFFSET 24.3286 1.87007e-05 0.0
							CHANNELS 6 Xposition Yposition Zposition Zrotation Xrotation Yrotation 
							JOINT Hand_L
							{
								OFFSET 22.2916 0.0 0.0
								CHANNELS 6 Xposition Yposition Zposition Zrotation Xrotation Yrotation 
								End Site
								{
									OFFSET 0.0 0.0 0.0
								}
							}
						}
					}
				}
				JOINT Shoulder_R
				{
					OFFSET 12.9945 -0.242716 -4.98039
					CHANNELS 6 Xposition Yposition Zposition Zrotation Xrotation Yrotation 
					JOINT UpperArm_R
					{
						OFFSET -5.34813 0.0 0.0
						CHANNELS 6 Xposition Yposition Zposition Zrotation Xrotation Yrotation 
						JOINT LowerArm_R
						{
							OFFSET -24.3289 0.000322201 0.0
							CHANNELS 6 Xposition Yposition Zposition Zrotation Xrotation Yrotation 
							JOINT Hand_R
							{
								OFFSET -22.2915 -0.000108084 0.0
								CHANNELS 6 Xposition Yposition Zposition Zrotation Xrotation Yrotation 
								End Site
								{
									OFFSET 0.0 0.0 0.0
								}
							}
						}
					}
				}
			}
		}
		JOINT UpperLeg_L
		{
			OFFSET -2.19248 -6.46944 0.0
			CHANNELS 6 Xposition Yposition Zposition Zrotation Xrotation Yrotation 
			JOINT LowerLeg_L
			{
				OFFSET 39.0811 0.0 -1.23785e-05
				CHANNELS 6 Xposition Yposition Zposition Zrotation Xrotation Yrotation 
				JOINT Foot_L
				{
					OFFSET 40.9854 0.0 -1.26872e-05
					CHANNELS 6 Xposition Yposition Zposition Zrotation Xrotation Yrotation 
					JOINT Toes_L
					{
						OFFSET 11.7543 0.0 0.0
						CHANNELS 6 Xposition Yposition Zposition Zrotation Xrotation Yrotation 
						End Site
						{
							OFFSET 0.0 0.0 0.0
						}
					}
				}
			}
		}
		JOINT UpperLeg_R
		{
			OFFSET -2.19251 6.46944 0.0
			CHANNELS 6 Xposition Yposition Zposition Zrotation Xrotation Yrotation 
			JOINT LowerLeg_R
			{
				OFFSET -39.0811 -0.00228153 -0.0401928
				CHANNELS 6 Xposition Yposition Zposition Zrotation Xrotation Yrotation 
				JOINT Foot_R
				{
					OFFSET -40.9854 0.0 0.0
					CHANNELS 6 Xposition Yposition Zposition Zrotation Xrotation Yrotation 
					JOINT Toes_R
					{
						OFFSET -11.7543 0.0 0.0
						CHANNELS 6 Xposition Yposition Zposition Zrotation Xrotation Yrotation 
						End Site
						{
							OFFSET 0.0 0.0 0.0
						}
					}
				}
			}
		}
	}
}
MOTION
Frames:	5
Frame Time:	0.0333333
0.000000 0.000000 0.000000 0.000000 0.000000 -0.000000 -3.219140 90.874900 -4.515050 88.485000 -1.810690 13.330100 15.735700 0.000005 -0.000001 89.259100 75.916100 -87.846100 8.984550 -0.406207 -0.000000 20.403700 -0.200771 2.871540 16.377300 -0.000001 -0.000001 9.154880 -2.202660 2.698100 6.456720 -0.000001 -0.000000 -11.153800 -2.014220 7.715470 12.994200 -0.242716 4.980390 -91.071100 4.184120 -75.628000 5.348090 -0.000007 -0.000001 -49.413200 -3.037130 -71.058700 24.328600 0.000019 0.000005 43.270100 -8.902260 -99.335300 22.291600 -0.000001 0.000005 26.206600 5.183030 3.141070 12.994500 -0.242716 -4.980390 88.783600 10.992200 -83.645900 -5.348130 -0.000001 -0.000004 -53.080600 35.655700 -25.355700 -24.328900 0.000322 -0.000009 2.322390 5.532980 -22.821900 -22.291500 -0.000108 -0.000004 16.511600 5.407860 -3.194560 -2.192480 -6.469440 -0.000000 -171.381000 -13.032600 -0.861499 39.081100 -0.000007 -0.000012 -0.135715 0.218638 31.829200 40.985400 -0.000006 -0.000013 -0.273149 8.868420 -67.050200 11.754300 -0.000000 0.000003 -0.000153 -0.001475 -16.633600 -2.192510 6.469440 -0.000001 175.661000 23.990900 -178.548000 -39.081100 -0.002282 -0.040193 -0.161121 0.279512 30.466200 -40.985400 0.000008 0.000006 6.563030 16.737000 -68.787600 -11.754300 -0.000006 -0.000006 -0.002564 -0.035562 -18.019200
0.000000 0.000000 0.000000 0.000000 0.000000 -0.000000 -3.203660 90.873400 -4.502460 88.454300 -2.210900 13.266200 15.735700 0.000005 -0.000001 89.351100 75.938800 -87.917700 8.984550 -0.406207 -0.000000 20.358300 -0.154473 2.903880 16.377300 -0.000001 -0.000001 9.167620 -2.218130 2.784240 6.456720 -0.000001 -0.000000 -11.133700 -2.059860 7.796170 12.994200 -0.242716 4.980390 -91.085300 4.222910 -75.572800 5.348090 -0.000007 -0.000001 -51.333000 -4.391090 -70.315900 24.328600 0.000019 0.000005 43.123800 -8.793080 -99.270100 22.291600 -0.000001 0.000005 26.170100 5.176330 3.305810 12.994500 -0.242716 -4.980390 88.773500 11.026800 -83.612900 -5.348130 -0.000001 -0.000004 -53.054100 35.520500 -25.155300 -24.328900 0.000322 -0.000009 2.323440 5.530600 -22.840000 -22.291500 -0.000108 -0.000004 16.528800 5.406900 -3.163180 -2.192480 -6.469440 -0.000000 -171.312000 -13.275100 -0.857925 39.081100 -0.000007 -0.000012 -0.133188 0.214330 31.857700 40.985400 -0.000006 -0.000013 -0.307899 8.689170 -67.098000 11.754300 -0.000000 0.000003 -0.000161 -0.001545 -16.636200 -2.192510 6.469440 -0.000001 175.764000 23.796200 -178.647000 -39.081100 -0.002282 -0.040193 -0.156883 0.272317 30.465200 -40.985400 0.000008 0.000006 6.612740 16.932000 -68.785400 -11.754300 -0.000006 -0.000006 -0.002684 -0.036971 -18.076600
0.000000 0.000000 0.000000 0.000000 0.000000 -0.000000 -3.192180 90.874500 -4.485770 88.422500 -2.577290 13.214600 15.735700 0.000005 -0.000001 89.407500 75.955200 -87.956400 8.984550 -0.406207 -0.000000 20.325400 -0.125568 2.934180 16.377300 -0.000001 -0.000001 9.163500 -2.245060 2.889330 6.456720 -0.000001 -0.000000 -11.106300 -2.101460 7.805960 12.994200 -0.242716 4.980390 -91.102200 4.274170 -75.526000 5.348090 -0.000007 -0.000001 -53.569100 -6.115700 -69.484500 24.328600 0.000019 0.000005 43.145100 -8.696620 -99.164300 22.291600 -0.000001 0.000005 26.247400 5.167170 3.529310 12.994500 -0.242716 -4.980390 88.773800 11.023200 -83.612800 -5.348130 -0.000001 -0.000004 -53.123400 35.326300 -24.995000 -24.328900 0.000322 -0.000009 2.380690 5.705710 -22.702700 -22.291500 -0.000108 -0.000004 16.514900 5.407180 -3.172190 -2.192480 -6.469440 -0.000000 -171.228000 -13.459800 -0.823610 39.081100 -0.000007 -0.000012 -0.135641 0.218250 31.860900 40.985400 -0.000006 -0.000013 -0.346652 8.573220 -67.144000 11.754300 -0.000000 0.000003 -0.000168 -0.001600 -16.638200 -2.192510 6.469440 -0.000001 175.856000 23.653300 -178.718000 -39.081100 -0.002282 -0.040193 -0.156772 0.272322 30.447400 -40.985400 0.000008 0.000006 6.660250 17.095700 -68.774900 -11.754300 -0.000006 -0.000006 -0.002750 -0.037746 -18.108100
0.000000 0.000000 0.000000 0.000000 0.000000 -0.000000 -3.194950 90.879500 -4.469900 88.396700 -2.832130 13.150700 15.735700 0.000005 -0.000001 89.422400 75.967800 -87.956500 8.984550 -0.406207 -0.000000 20.300300 -0.116913 2.962250 16.377300 -0.000001 -0.000001 9.135540 -2.282690 2.992830 6.456720 -0.000001 -0.000000 -11.090600 -2.145260 7.815400 12.994200 -0.242716 4.980390 -91.123200 4.342340 -75.482300 5.348090 -0.000007 -0.000001 -56.094900 -8.093490 -68.727200 24.328600 0.000019 0.000005 43.095300 -8.531320 -99.009600 22.291600 -0.000001 0.000005 26.328600 5.161070 3.677040 12.994500 -0.242716 -4.980390 88.760600 11.044100 -83.556500 -5.348130 -0.000001 -0.000004 -53.061600 35.252300 -24.956200 -24.328900 0.000322 -0.000009 2.385990 5.761310 -22.551300 -22.291500 -0.000108 -0.000004 16.466100 5.406590 -3.152760 -2.192480 -6.469440 -0.000000 -171.159000 -13.632200 -0.810361 39.081100 -0.000007 -0.000012 -0.136367 0.219570 31.843200 40.985400 -0.000006 -0.000013 -0.376502 8.500070 -67.167700 11.754300 -0.000000 0.000003 -0.000178 -0.001676 -16.641000 -2.192510 6.469440 -0.000001 175.945000 23.509000 -178.786000 -39.081100 -0.002282 -0.040193 -0.158256 0.275249 30.410800 -40.985400 0.000008 0.000006 6.690990 17.218700 -68.758900 -11.754300 -0.000006 -0.000006 -0.002736 -0.037577 -18.101200
0.000000 0.000000 0.000000 0.000000 0.000000 -0.000000 -3.193960 90.876500 -4.443000 88.413600 -3.012000 13.099600 15.735700 0.000005 -0.000001 89.449600 75.985100 -87.985200 8.984550 -0.406207 -0.000000 20.265700 -0.104172 2.957030 16.377300 -0.000001 -0.000001 9.163250 -2.344670 3.032870 6.456720 -0.000001 -0.000000 -11.130900 -2.267480 7.881010 12.994200 -0.242716 4.980390 -91.126600 4.353490 -75.476800 5.348090 -0.000007 -0.000001 -59.060900 -10.187400 -68.048000 24.328600 0.000019 0.000005 42.956900 -8.357800 -98.872800 22.291600 -0.000001 0.000005 26.315800 5.150230 3.937670 12.994500 -0.242716 -4.980390 88.748000 11.079400 -83.511600 -5.348130 -0.000001 -0.000004 -53.058800 35.151600 -24.816500 -24.328900 0.000322 -0.000009 2.409120 5.841880 -22.466500 -22.291500 -0.000108 -0.000004 16.509900 5.405000 -3.100690 -2.192480 -6.469440 -0.000000 -171.150000 -13.747600 -0.801039 39.081100 -0.000007 -0.000012 -0.137712 0.221740 31.842600 40.985400 -0.000006 -0.000013 -0.398732 8.431430 -67.204400 11.754300 -0.000000 0.000003 -0.000173 -0.001638 -16.639600 -2.192510 6.469440 -0.000001 175.979000 23.401400 -178.862000 -39.081100 -0.002282 -0.040193 -0.155559 0.270345 30.439400 -40.985400 0.000008 0.000006 6.710760 17.262700 -68.780700 -11.754300 -0.000006 -0.000006 -0.002734 -0.037553 -18.100200
